<svg version="1" xmlns="http://www.w3.org/2000/svg" width="445.333" height="445.333" viewBox="0 0 334.000000 334.000000"><path d="M86.6 87.9l-81 81 81.2 81.2 81.3 81.2 81.2-81.2 81.1-81.2L249.5 88C204.9 43.4 168.3 7 168 7c-.3 0-36.9 36.4-81.4 80.9zM241 92.5c0 1.1-5.3 22-5.6 22.4-.2.3-1.5-.6-2.9-1.9l-2.5-2.4-3.1 3c-1.7 1.6-13.9 13.6-27.2 26.6l-24.2 23.7-8.5-8.4-8.5-8.5-21.2 21.2-21.3 21.3v-13l21.5-21.5 21.4-21.4 6.4 6.4c3.5 3.6 7.4 7.4 8.6 8.4l2.2 2 23.4-23.4 23.5-23.4-2.7-2.8c-1.5-1.5-2.5-3-2.2-3.2.5-.4 19.8-5.4 21.7-5.5.6-.1 1.2.1 1.2.4zm-11.2 72.7l-.3 47.3-4.7.3-4.8.3v-86.5l4.2-4.3c2.3-2.4 4.6-4.3 5-4.3.5 0 .7 21.3.6 47.2zM209 175.6v37.5l-4.7-.3-4.8-.3-.3-32.5-.2-32.4 4.7-4.8c2.6-2.6 4.9-4.8 5-4.8.2 0 .3 16.9.3 37.6zm-105 3.9V220l62.8.2 62.7.3.3 4.7.3 4.8H94v-91h10v40.5zm59.2-21.8l3.8 3.7V213h-4.4c-3.1 0-4.6-.5-5-1.6-.8-2.1-.8-55.9.1-56.7 1.1-1.1 1.5-.9 5.5 3zm24.8 28.4v27l-4.7-.3-4.8-.3-.3-22.4-.2-22.4 4.2-4.3c2.4-2.4 4.6-4.4 5.1-4.4.4 0 .7 12.2.7 27.1zm-41.8 3.9l-.3 23H137v-38.3l4-3.9c2.3-2.1 4.4-3.8 4.8-3.8.4 0 .6 10.3.4 23zm-20.4 9.7l-.3 12.8-4.7.3-4.8.3V196l4.3-4.5c2.3-2.4 4.6-4.5 5-4.5.4 0 .6 5.7.5 12.7z"/></svg>